# xmcd CD database file
#
# Track frame offsets:
#	150
#	35541
#	51215
#	84374
#	98950
#	119262
#	141559
#	168294
#	184132
#	200877
#	223801
#	255852
#	272371
#	298313
#
# Disc length: 4193 seconds
#
# Revision: 3
# Processed by: cddbd v1.5.2PL0 Copyright (c) Steve Scherf et al.
# Submitted via: CDex 1.51
#
DISCID=d6105f0e
DTITLE=Rachmaninoff - Moments Musicaux, Morceaux de Salon
DYEAR=2008
DGENRE=Classique
TTITLE0=Moments Musicaux Op.16 - N°1 in B Flat minor - Andantino  [Alexander Chindin, piano]
TTITLE1=Moments Musicaux Op.16 - N°2 in E Flat minor - Allegretto
TTITLE2=Moments Musicaux Op.16 - N°3 in B minor - Andante cantabile
TTITLE3=Moments Musicaux Op.16 - N°4 in E minor - Presto
TTITLE4=Moments Musicaux Op.16 - N°5 in D flat major - Adagio sostenuto
TTITLE5=Moments Musicaux Op.16 - N°6 in C major - Maestoso
TTITLE6=Morceaux de Salon Op.10 - N°1 in A minor - Nocturne  [Michael Ponti, piano]
TTITLE7=Morceaux de Salon Op.10 - N°2 in A major - Valse
TTITLE8=Morceaux de Salon Op.10 - N°3 in G major - Barcarolle
TTITLE9=Morceaux de Salon Op.10 - N°4 in E minor - Mélodie
TTITLE10=Morceaux de Salon Op.10 - N°5 in G major - Humoresque
TTITLE11=Morceaux de Salon Op.10 - N°6 in F minor - Romance
TTITLE12=Morceaux de Salon Op.10 - N°7 in D Flat major - Mazurka
TTITLE13=Polka de V.R.  [Robert Groslot, piano]
EXTD=YEAR: 2008
EXTT0=
EXTT1=
EXTT2=
EXTT3=
EXTT4=
EXTT5=
EXTT6=
EXTT7=
EXTT8=
EXTT9=
EXTT10=
EXTT11=
EXTT12=
EXTT13=
PLAYORDER=
